<svg width="127" height="93" viewBox="0 0 127 93" fill="none" xmlns="http://www.w3.org/2000/svg">
<path d="M68.6963 62.8237L61.1328 82.0576L77.0952 83.4045L82.1256 69.4505L89.9468 70.115L94.7196 57.3103L86.7383 56.6368L68.6963 62.8237Z" fill="#EF4136"/>
<path d="M110.815 26.7533L100.968 34.9874L99.51 37.9955L103.358 52.1651L110.549 53.6557L118.512 52.3267L110.815 26.7533Z" fill="#EF4136"/>
<path d="M108.709 15.6457L102.594 32.0422L111.651 22.9191L108.709 15.6457Z" fill="#EF4136"/>
<path d="M85.2363 52.5063L69.7805 52.3896L65.9055 62.1861L83.9565 56.0262L85.2363 52.5063Z" fill="#EF4136"/>
<path d="M121.667 54.2303L113.695 55.5593L122.618 57.4001L121.667 54.2303Z" fill="#EF4136"/>
<path d="M103.101 7.32178L86.0006 7.58218L73.5045 51.5994L88.898 50.1447L94.684 27.301L94.9684 27.292L97.7413 36.918L106.496 18.0073L103.101 7.32178Z" fill="#EF4136"/>
<path d="M119.063 57.9658L102.958 54.5805L103.643 57.1217L97.7147 57.1038L97.6702 70.2586L107.127 70.3035L110.984 84.6437L127 84.7066L119.063 57.9658Z" fill="#EF4136"/>
<path d="M95.0128 59.4115L92.2398 72.8088L96.5415 72.5035L95.6261 59.3666L95.0128 59.4115Z" fill="#EF4136"/>
<path d="M36.7952 90.6294C46.6783 64.3376 67.1823 58.6896 67.1823 32.2451C67.1823 14.4389 51.2199 0 33.5956 0C15.9623 0 0 14.4389 0 32.2451C0 59.3271 20.2996 63.9605 30.3427 90.6025L36.7952 90.6294ZM33.5956 46.6571C26.6365 46.6571 21.0017 40.9642 21.0017 33.9333C21.0017 26.9024 26.6365 21.2094 33.5956 21.2094C40.5547 21.2094 46.1895 26.9024 46.1895 33.9333C46.1895 40.9642 40.5458 46.6571 33.5956 46.6571Z" fill="#EF4136"/>
<path d="M33.5511 93C35.4164 93 36.9285 91.4723 36.9285 89.5878C36.9285 87.7033 35.4164 86.1756 33.5511 86.1756C31.6859 86.1756 30.1738 87.7033 30.1738 89.5878C30.1738 91.4723 31.6859 93 33.5511 93Z" fill="#EF4136"/>
</svg>
