<svg width="215" height="31" viewBox="0 0 215 31" fill="none" xmlns="http://www.w3.org/2000/svg">
<path d="M159.038 19.3806L156.558 25.7919L161.791 26.2409L163.441 21.5896L166.005 21.811L167.57 17.5428L164.953 17.3183L159.038 19.3806Z" fill="#EF4136"/>
<path d="M172.847 7.35715L169.619 10.1019L169.141 11.1046L170.403 15.8277L172.76 16.3246L175.371 15.8816L172.847 7.35715Z" fill="#EF4136"/>
<path d="M172.157 3.65463L170.152 9.12011L173.121 6.07908L172.157 3.65463Z" fill="#EF4136"/>
<path d="M164.461 15.9415L159.393 15.9026L158.122 19.1681L164.041 17.1148L164.461 15.9415Z" fill="#EF4136"/>
<path d="M176.406 16.5162L173.792 16.9592L176.717 17.5728L176.406 16.5162Z" fill="#EF4136"/>
<path d="M170.318 0.879986L164.711 0.966787L160.614 15.6392L165.661 15.1543L167.558 7.53973L167.652 7.53674L168.561 10.7454L171.431 4.44183L170.318 0.879986Z" fill="#EF4136"/>
<path d="M175.552 17.7613L170.271 16.6329L170.496 17.48L168.552 17.474L168.538 21.8589L171.638 21.8739L172.903 26.654L178.154 26.6749L175.552 17.7613Z" fill="#EF4136"/>
<path d="M167.666 18.2432L166.757 22.709L168.167 22.6072L167.867 18.2283L167.666 18.2432Z" fill="#EF4136"/>
<path d="M110.871 25.5016H105.666V0.930863H110.871V25.5016Z" fill="#372F41"/>
<path d="M147.268 17.0789V25.5016H142.034V0.930863H151.161C153.827 0.930863 155.943 1.67616 157.508 3.16674C159.073 4.65733 159.857 6.60587 159.857 9.01535C159.857 11.4338 159.073 13.3823 157.508 14.861C155.943 16.3396 153.827 17.0789 151.161 17.0789H147.268ZM147.268 12.6909H151.161C152.295 12.6909 153.157 12.3497 153.749 11.6703C154.34 10.9908 154.638 10.1138 154.638 9.04528C154.638 7.95278 154.34 7.06082 153.749 6.36342C153.157 5.66602 152.295 5.31582 151.161 5.31582H147.268V12.6909Z" fill="#372F41"/>
<path d="M196.432 16.8783L196.464 16.9801C196.362 19.8595 195.581 22.0595 194.124 23.58C192.667 25.0975 190.554 25.8578 187.783 25.8578C185.003 25.8578 182.741 24.9239 181.004 23.0562C179.265 21.1885 178.393 18.764 178.393 15.7828V10.6496C178.393 7.6804 179.23 5.25895 180.902 3.38524C182.575 1.51153 184.749 0.574678 187.427 0.574678C190.268 0.574678 192.442 1.35589 193.946 2.9213C195.45 4.48672 196.298 6.70763 196.493 9.58704L196.461 9.6888H191.379C191.306 8.09046 190.979 6.90518 190.397 6.12696C189.814 5.35174 188.823 4.96263 187.424 4.96263C186.241 4.96263 185.309 5.48344 184.63 6.52206C183.951 7.56367 183.61 8.92855 183.61 10.6137V15.7769C183.61 17.477 183.98 18.8478 184.72 19.8954C185.46 20.943 186.48 21.4638 187.777 21.4638C189.033 21.4638 189.925 21.0987 190.449 20.3683C190.974 19.638 191.274 18.4737 191.347 16.8753H196.432V16.8783Z" fill="#372F41"/>
<path d="M215 5.40262H208.881V25.4567H203.635V5.40262H197.807V0.912904H215V5.40262Z" fill="#372F41"/>
<path d="M121.399 0.930863L126.435 17.0669H126.528L131.625 0.930863H138.514V25.5016H133.277V19.4075L133.773 8.18625L133.679 8.16829L128.259 25.4986H124.739L119.38 8.31794L119.287 8.3359L119.782 19.4075V25.5016H114.545V0.930863H121.399Z" fill="#372F41"/>
<path d="M5.23665 21.1136H14.9202V25.5016H0V0.930863H5.23665V21.1136Z" fill="#372F41"/>
<path d="M54.8464 16.8783L54.8785 16.9801C54.7765 19.8595 53.9955 22.0595 52.5385 23.58C51.0814 25.0975 48.9687 25.8578 46.1974 25.8578C43.4173 25.8578 41.1559 24.9239 39.4162 23.0562C37.6765 21.1885 36.8052 18.764 36.8052 15.7828V10.6496C36.8052 7.6804 37.6415 5.25895 39.3142 3.38524C40.9869 1.51153 43.1609 0.574678 45.8389 0.574678C48.6802 0.574678 50.8541 1.35589 52.3578 2.9213C53.8615 4.48672 54.7095 6.70763 54.9047 9.58704L54.8727 9.6888H49.7905C49.7176 8.09046 49.3912 6.90518 48.8084 6.12696C48.2256 5.35174 47.2348 4.96263 45.836 4.96263C44.6529 4.96263 43.7204 5.48344 43.0414 6.52206C42.3624 7.56367 42.0214 8.92855 42.0214 10.6137V15.7769C42.0214 17.477 42.3915 18.8478 43.1346 19.8954C43.8748 20.943 44.8947 21.4638 46.1915 21.4638C47.4475 21.4638 48.3392 21.0987 48.8638 20.3683C49.3883 19.638 49.6885 18.4737 49.7584 16.8753H54.8464V16.8783Z" fill="#372F41"/>
<path d="M68.7846 20.7245H61.6946L60.4269 25.5016H55.1757L62.4348 0.930863H68.0415L75.3151 25.5016H70.0639L68.7846 20.7245ZM62.8544 16.3366H67.6277L65.2789 7.54272H65.1857L62.8544 16.3366Z" fill="#372F41"/>
<path d="M82.5567 21.1136H92.2403V25.5016H77.32V0.930863H82.5567V21.1136Z" fill="#372F41"/>
<path d="M24.7441 30.2098C27.9846 21.4459 34.7074 19.5632 34.7074 10.7484C34.7074 4.81298 29.4737 0 23.695 0C17.9134 0 12.6797 4.81298 12.6797 10.7484C12.6797 19.7757 19.3355 21.3202 22.6285 30.2008L24.7441 30.2098ZM23.695 15.5524C21.4133 15.5524 19.5657 13.6547 19.5657 11.3111C19.5657 8.96746 21.4133 7.06981 23.695 7.06981C25.9768 7.06981 27.8243 8.96746 27.8243 11.3111C27.8243 13.6547 25.9738 15.5524 23.695 15.5524Z" fill="#EF4136"/>
<path d="M23.6806 31C24.2922 31 24.788 30.4908 24.788 29.8626C24.788 29.2344 24.2922 28.7252 23.6806 28.7252C23.069 28.7252 22.5732 29.2344 22.5732 29.8626C22.5732 30.4908 23.069 31 23.6806 31Z" fill="#EF4136"/>
</svg>
