<svg width="34" height="30" viewBox="0 0 34 30" fill="none" xmlns="http://www.w3.org/2000/svg">
<path d="M34 11V9C34 8.844 33.964 8.692 33.894 8.552L29.894 0.552C29.724 0.214 29.378 0 29 0H5C4.622 0 4.274 0.214 4.106 0.552L0.106 8.552C0.0359999 8.69 0 8.844 0 9V11C0 12.632 0.786 14.084 2 14.998V28H1C0.448 28 0 28.448 0 29C0 29.552 0.448 30 1 30H33C33.552 30 34 29.552 34 29C34 28.448 33.552 28 33 28H32V14.998C33.214 14.084 34 12.634 34 11ZM21 14C19.346 14 18 12.654 18 11V10H24V11C24 12.654 22.654 14 21 14ZM2 11V10H8V11C8 12.654 6.654 14 5 14C3.346 14 2 12.654 2 11ZM16 2V8H10.28L11.78 2H16ZM22.22 2L23.72 8H18V2H22.22ZM10 10H16V11C16 12.654 14.654 14 13 14C11.346 14 10 12.654 10 11V10ZM26 10H32V11C32 12.654 30.654 14 29 14C27.346 14 26 12.654 26 11V10ZM31.382 8H25.78L24.28 2H28.382L31.382 8ZM5.618 2H9.72L8.22 8H2.618L5.618 2ZM4 15.9C4.324 15.966 4.658 16 5 16C6.634 16 8.088 15.212 9 13.996C9.912 15.212 11.366 16 13 16C14.634 16 16.088 15.212 17 13.996C17.722 14.956 18.78 15.65 20 15.898V27.998H4V15.898V15.9ZM30 28H22V15.9C23.22 15.652 24.278 14.958 25 13.998C25.912 15.214 27.366 16.002 29 16.002C29.342 16.002 29.676 15.968 30 15.902V28.002V28Z" fill="white"/>
<path d="M26 21C26 21.552 25.552 22 25 22C24.448 22 24 21.552 24 21C24 20.448 24.448 20 25 20C25.552 20 26 20.448 26 21Z" fill="white"/>
<path d="M7.00001 22C6.74401 22 6.48801 21.902 6.29201 21.708C5.90201 21.318 5.90201 20.684 6.29201 20.294L8.29201 18.294C8.68201 17.904 9.31601 17.904 9.70601 18.294C10.096 18.684 10.096 19.318 9.70601 19.708L7.70601 21.708C7.51001 21.904 7.25401 22 6.99801 22H7.00001Z" fill="white"/>
<path d="M9.00001 26C8.74401 26 8.48801 25.902 8.29201 25.708C7.90201 25.318 7.90201 24.684 8.29201 24.294L14.292 18.294C14.682 17.904 15.316 17.904 15.706 18.294C16.096 18.684 16.096 19.318 15.706 19.708L9.70601 25.708C9.51001 25.904 9.25401 26 8.99801 26H9.00001Z" fill="white"/>
<path d="M15 26C14.744 26 14.488 25.902 14.292 25.708C13.902 25.318 13.902 24.684 14.292 24.294L16.292 22.294C16.682 21.904 17.316 21.904 17.706 22.294C18.096 22.684 18.096 23.318 17.706 23.708L15.706 25.708C15.51 25.904 15.254 26 14.998 26H15Z" fill="white"/>
</svg>
